{
    "accessors": {
        "accessor_21": {
            "bufferView": "bufferView_83",
            "byteOffset": 41196,
            "byteStride": 0,
            "componentType": 5123,
            "count": 14496,
            "type": "SCALAR"
        },
        "accessor_23": {
            "bufferView": "bufferView_84",
            "byteOffset": 659136,
            "byteStride": 12,
            "componentType": 5126,
            "count": 14496,
            "max": [
                4090.27,
                755.767,
                14643
            ],
            "min": [
                -2325.76,
                -2297.43,
                3086.4
            ],
            "type": "VEC3"
        },
        "accessor_25": {
            "bufferView": "bufferView_84",
            "byteOffset": 833088,
            "byteStride": 12,
            "componentType": 5126,
            "count": 14496,
            "max": [
                0.99995,
                1,
                1
            ],
            "min": [
                -0.999965,
                -1,
                -1
            ],
            "type": "VEC3"
        },
        "accessor_27": {
            "bufferView": "bufferView_84",
            "byteOffset": 1007040,
            "byteStride": 8,
            "componentType": 5126,
            "count": 14496,
            "max": [
                0.998008,
                0.998228
            ],
            "min": [
                0.00199199,
                0.0876924
            ],
            "type": "VEC2"
        },
        "accessor_48": {
            "bufferView": "bufferView_83",
            "byteOffset": 41184,
            "byteStride": 0,
            "componentType": 5123,
            "count": 6,
            "type": "SCALAR"
        },
        "accessor_50": {
            "bufferView": "bufferView_84",
            "byteOffset": 658944,
            "byteStride": 12,
            "componentType": 5126,
            "count": 6,
            "max": [
                1,
                1,
                0
            ],
            "min": [
                -1,
                -1,
                0
            ],
            "type": "VEC3"
        },
        "accessor_52": {
            "bufferView": "bufferView_84",
            "byteOffset": 659016,
            "byteStride": 12,
            "componentType": 5126,
            "count": 6,
            "max": [
                0,
                0,
                1
            ],
            "min": [
                0,
                0,
                1
            ],
            "type": "VEC3"
        },
        "accessor_54": {
            "bufferView": "bufferView_84",
            "byteOffset": 659088,
            "byteStride": 8,
            "componentType": 5126,
            "count": 6,
            "max": [
                0.993927,
                0.993927
            ],
            "min": [
                0.00607318,
                0.00607318
            ],
            "type": "VEC2"
        },
        "accessor_75": {
            "bufferView": "bufferView_83",
            "byteOffset": 0,
            "byteStride": 0,
            "componentType": 5123,
            "count": 20592,
            "type": "SCALAR"
        },
        "accessor_77": {
            "bufferView": "bufferView_84",
            "byteOffset": 0,
            "byteStride": 12,
            "componentType": 5126,
            "count": 20592,
            "max": [
                265.569,
                201.529,
                5.7299
            ],
            "min": [
                -264.879,
                -201.529,
                -5.7299
            ],
            "type": "VEC3"
        },
        "accessor_79": {
            "bufferView": "bufferView_84",
            "byteOffset": 247104,
            "byteStride": 12,
            "componentType": 5126,
            "count": 20592,
            "max": [
                1,
                1,
                1
            ],
            "min": [
                -1,
                -1,
                -0.959424
            ],
            "type": "VEC3"
        },
        "accessor_81": {
            "bufferView": "bufferView_84",
            "byteOffset": 494208,
            "byteStride": 8,
            "componentType": 5126,
            "count": 20592,
            "max": [
                0.958672,
                0.940429
            ],
            "min": [
                0.0282074,
                0.0618049
            ],
            "type": "VEC2"
        }
    },
    "animations": {},
    "asset": {
        "generator": "collada2gltf@cf6371beb0bdc18ba603378d5e40c966da53d385",
        "premultipliedAlpha": true,
        "profile": {
            "api": "WebGL",
            "version": "1.0.2"
        },
        "version": "1.0"
    },
    "bufferViews": {
        "bufferView_83": {
            "buffer": "pool-hall",
            "byteLength": 70188,
            "byteOffset": 0,
            "target": 34963
        },
        "bufferView_84": {
            "buffer": "pool-hall",
            "byteLength": 1123008,
            "byteOffset": 70188,
            "target": 34962
        }
    },
    "buffers": {
        "pool-hall": {
            "byteLength": 1193196,
            "type": "arraybuffer",
            "uri": "pool-hall.bin"
        }
    },
    "cameras": {
        "Camera-camera": {
            "name": "Camera",
            "perspective": {
                "aspect_ratio": 1.77778,
                "yfov": 0.482375,
                "zfar": 100,
                "znear": 0.1
            },
            "type": "perspective"
        }
    },
    "extensionsUsed": [
        "KHR_materials_common"
    ],
    "images": {
        "PoolTable_jpg": {
            "name": "PoolTable_jpg",
            "uri": "PoolTable.jpg"
        },
        "dog_poker_1_jpg": {
            "name": "dog_poker_1_jpg",
            "uri": "dog_poker_1.jpg"
        },
        "wood-floor_jpg": {
            "name": "wood-floor_jpg",
            "uri": "wood-floor.jpg"
        }
    },
    "materials": {
        "cubeMat-effect": {
            "extensions": {
                "KHR_materials_common": {
                    "doubleSided": false,
                    "jointCount": 0,
                    "technique": "PHONG",
                    "transparent": false,
                    "values": {
                        "ambient": [
                            0,
                            0,
                            0,
                            1
                        ],
                        "diffuse": "texture_dog_poker_1_jpg",
                        "emission": [
                            0,
                            0,
                            0,
                            1
                        ],
                        "shininess": 50,
                        "specular": [
                            0.5,
                            0.5,
                            0.5,
                            1
                        ]
                    }
                }
            },
            "name": "cubeMat"
        },
        "lambert1-effect": {
            "extensions": {
                "KHR_materials_common": {
                    "doubleSided": false,
                    "jointCount": 0,
                    "technique": "PHONG",
                    "transparent": false,
                    "values": {
                        "ambient": [
                            0,
                            0,
                            0,
                            1
                        ],
                        "diffuse": "texture_PoolTable_jpg",
                        "emission": [
                            0,
                            0,
                            0,
                            1
                        ],
                        "shininess": 49,
                        "specular": [
                            0.5,
                            0.5,
                            0.5,
                            1
                        ]
                    }
                }
            },
            "name": "lambert1"
        },
        "wire_207254118-effect": {
            "extensions": {
                "KHR_materials_common": {
                    "doubleSided": false,
                    "jointCount": 0,
                    "technique": "PHONG",
                    "transparent": false,
                    "values": {
                        "ambient": [
                            0,
                            0,
                            0,
                            1
                        ],
                        "diffuse": "texture_wood-floor_jpg",
                        "emission": [
                            0,
                            0,
                            0,
                            1
                        ],
                        "shininess": 50,
                        "specular": [
                            0.5,
                            0.5,
                            0.5,
                            1
                        ]
                    }
                }
            },
            "name": "wire_207254118"
        }
    },
    "meshes": {
        "Object2389-mesh": {
            "name": "Object2389",
            "primitives": [
                {
                    "attributes": {
                        "NORMAL": "accessor_79",
                        "POSITION": "accessor_77",
                        "TEXCOORD_0": "accessor_81"
                    },
                    "indices": "accessor_75",
                    "material": "wire_207254118-effect",
                    "mode": 4
                }
            ]
        },
        "Plane-mesh": {
            "name": "Plane",
            "primitives": [
                {
                    "attributes": {
                        "NORMAL": "accessor_52",
                        "POSITION": "accessor_50",
                        "TEXCOORD_0": "accessor_54"
                    },
                    "indices": "accessor_48",
                    "material": "cubeMat-effect",
                    "mode": 4
                }
            ]
        },
        "Untitled-mesh": {
            "name": "Untitled",
            "primitives": [
                {
                    "attributes": {
                        "NORMAL": "accessor_25",
                        "POSITION": "accessor_23",
                        "TEXCOORD_0": "accessor_27"
                    },
                    "indices": "accessor_21",
                    "material": "lambert1-effect",
                    "mode": 4
                }
            ]
        }
    },
    "nodes": {
        "Camera": {
            "camera": "Camera-camera",
            "children": [],
            "matrix": [
                0.685921,
                0.727676,
                0,
                0,
                -0.324014,
                0.305421,
                0.895396,
                0,
                0.651558,
                -0.61417,
                0.445271,
                0,
                7.48113,
                -6.50764,
                5.34367,
                1
            ],
            "name": "Camera"
        },
        "DogPokerPainting": {
            "children": [
                "Surface"
            ],
            "matrix": [
                -0.108794,
                -0.000703014,
                0,
                0,
                -1.14535e-010,
                1.77248e-008,
                0.108797,
                0,
                -0.000703014,
                0.108794,
                -1.77252e-008,
                0,
                0,
                -79.861,
                35.2284,
                1
            ],
            "meshes": [
                "Object2389-mesh"
            ],
            "name": "DogPokerPainting"
        },
        "PoolTable": {
            "children": [],
            "matrix": [
                -0.000125766,
                -0.00999919,
                -1.93706e-005,
                0,
                -1.93184e-005,
                -1.91291e-005,
                0.00999996,
                0,
                -0.00999919,
                0.000125803,
                -1.90763e-005,
                0,
                89.8299,
                7.99498,
                0.320264,
                1
            ],
            "meshes": [
                "Untitled-mesh"
            ],
            "name": "PoolTable"
        },
        "Surface": {
            "children": [],
            "matrix": [
                235.139,
                3.47741e-007,
                1.51936,
                0,
                -1.31092e-007,
                147.475,
                -1.75811e-005,
                0,
                -0.952895,
                2.30826e-005,
                147.472,
                0,
                -2.07375,
                -0.385406,
                -6.39874,
                1
            ],
            "meshes": [
                "Plane-mesh"
            ],
            "name": "Surface"
        },
        "node_4": {
            "children": [
                "Camera",
                "PoolTable",
                "DogPokerPainting"
            ],
            "matrix": [
                1,
                0,
                0,
                0,
                0,
                0,
                -1,
                0,
                0,
                1,
                0,
                0,
                0,
                0,
                0,
                1
            ],
            "name": "Y_UP_Transform"
        }
    },
    "samplers": {
        "sampler_0": {
            "magFilter": 9729,
            "minFilter": 9729,
            "wrapS": 10497,
            "wrapT": 10497
        }
    },
    "scene": "defaultScene",
    "scenes": {
        "defaultScene": {
            "nodes": [
                "node_4"
            ]
        }
    },
    "skins": {},
    "textures": {
        "texture_PoolTable_jpg": {
            "format": 6408,
            "internalFormat": 6408,
            "sampler": "sampler_0",
            "source": "PoolTable_jpg",
            "target": 3553,
            "type": 5121
        },
        "texture_dog_poker_1_jpg": {
            "format": 6408,
            "internalFormat": 6408,
            "sampler": "sampler_0",
            "source": "dog_poker_1_jpg",
            "target": 3553,
            "type": 5121
        },
        "texture_wood-floor_jpg": {
            "format": 6408,
            "internalFormat": 6408,
            "sampler": "sampler_0",
            "source": "wood-floor_jpg",
            "target": 3553,
            "type": 5121
        }
    }
}