{
    "accessors" : [
        {
            "bufferView" : 0, 
            "componentType" : 5123, 
            "count" : 20592, 
            "max" : [
                5019
            ], 
            "min" : [
                0
            ], 
            "type" : "SCALAR"
        }, 
        {
            "bufferView" : 1, 
            "componentType" : 5126, 
            "count" : 5020, 
            "max" : [
                265.56890869140625, 
                5.729899883270264, 
                201.5290069580078
            ], 
            "min" : [
                -264.87921142578125, 
                -5.729899883270264, 
                -201.5290985107422
            ], 
            "type" : "VEC3"
        }, 
        {
            "bufferView" : 2, 
            "componentType" : 5126, 
            "count" : 5020, 
            "max" : [
                1.0, 
                1.0, 
                1.0
            ], 
            "min" : [
                -1.0, 
                -0.999755859375, 
                -1.0
            ], 
            "type" : "VEC3"
        }, 
        {
            "bufferView" : 3, 
            "componentType" : 5126, 
            "count" : 5020, 
            "max" : [
                1.0, 
                1.0, 
                1.0, 
                1.0
            ], 
            "min" : [
                -1.0, 
                -0.9999989867210388, 
                -0.9868390560150146, 
                1.0
            ], 
            "type" : "VEC4"
        }, 
        {
            "bufferView" : 4, 
            "componentType" : 5126, 
            "count" : 5020, 
            "max" : [
                0.9586715698242188, 
                0.9404291808605194
            ], 
            "min" : [
                0.028207361698150635, 
                0.061804890632629395
            ], 
            "type" : "VEC2"
        }, 
        {
            "bufferView" : 5, 
            "componentType" : 5121, 
            "count" : 6, 
            "max" : [
                3
            ], 
            "min" : [
                0
            ], 
            "type" : "SCALAR"
        }, 
        {
            "bufferView" : 6, 
            "componentType" : 5126, 
            "count" : 4, 
            "max" : [
                1.0, 
                0.0, 
                1.0
            ], 
            "min" : [
                -1.0, 
                0.0, 
                -1.0
            ], 
            "type" : "VEC3"
        }, 
        {
            "bufferView" : 7, 
            "componentType" : 5126, 
            "count" : 4, 
            "max" : [
                0.0, 
                1.0, 
                -0.0
            ], 
            "min" : [
                0.0, 
                1.0, 
                -0.0
            ], 
            "type" : "VEC3"
        }, 
        {
            "bufferView" : 8, 
            "componentType" : 5126, 
            "count" : 4, 
            "max" : [
                1.0, 
                0.0, 
                -0.0, 
                1.0
            ], 
            "min" : [
                1.0, 
                0.0, 
                -0.0, 
                1.0
            ], 
            "type" : "VEC4"
        }, 
        {
            "bufferView" : 9, 
            "componentType" : 5126, 
            "count" : 4, 
            "max" : [
                0.9939267039299011, 
                0.9939267933368683
            ], 
            "min" : [
                0.00607319176197052, 
                0.006073176860809326
            ], 
            "type" : "VEC2"
        }, 
        {
            "bufferView" : 10, 
            "componentType" : 5123, 
            "count" : 14496, 
            "max" : [
                3457
            ], 
            "min" : [
                0
            ], 
            "type" : "SCALAR"
        }, 
        {
            "bufferView" : 11, 
            "componentType" : 5126, 
            "count" : 3458, 
            "max" : [
                4090.2646484375, 
                14643.037109375, 
                2297.427978515625
            ], 
            "min" : [
                -2325.76318359375, 
                3086.40185546875, 
                -755.767333984375
            ], 
            "type" : "VEC3"
        }, 
        {
            "bufferView" : 12, 
            "componentType" : 5126, 
            "count" : 3458, 
            "max" : [
                0.99993896484375, 
                0.999969482421875, 
                0.999969482421875
            ], 
            "min" : [
                -0.99993896484375, 
                -1.0, 
                -0.999969482421875
            ], 
            "type" : "VEC3"
        }, 
        {
            "bufferView" : 13, 
            "componentType" : 5126, 
            "count" : 3458, 
            "max" : [
                0.8000335097312927, 
                0.9999646544456482, 
                0.9999982118606567, 
                1.0
            ], 
            "min" : [
                -0.9999845623970032, 
                -0.9999496340751648, 
                -0.9999999403953552, 
                1.0
            ], 
            "type" : "VEC4"
        }, 
        {
            "bufferView" : 14, 
            "componentType" : 5126, 
            "count" : 3458, 
            "max" : [
                0.9980080127716064, 
                0.9982278763782233
            ], 
            "min" : [
                0.001992032863199711, 
                0.08769243955612183
            ], 
            "type" : "VEC2"
        }
    ], 
    "asset" : {
        "generator" : "Khronos Blender glTF 2.0 exporter", 
        "version" : "2.0"
    }, 
    "bufferViews" : [
        {
            "buffer" : 0, 
            "byteLength" : 41184, 
            "byteOffset" : 0, 
            "target" : 34963
        }, 
        {
            "buffer" : 0, 
            "byteLength" : 60240, 
            "byteOffset" : 41184, 
            "target" : 34962
        }, 
        {
            "buffer" : 0, 
            "byteLength" : 60240, 
            "byteOffset" : 101424, 
            "target" : 34962
        }, 
        {
            "buffer" : 0, 
            "byteLength" : 80320, 
            "byteOffset" : 161664, 
            "target" : 34962
        }, 
        {
            "buffer" : 0, 
            "byteLength" : 40160, 
            "byteOffset" : 241984, 
            "target" : 34962
        }, 
        {
            "buffer" : 0, 
            "byteLength" : 6, 
            "byteOffset" : 282144, 
            "target" : 34963
        }, 
        {
            "buffer" : 0, 
            "byteLength" : 48, 
            "byteOffset" : 282152, 
            "target" : 34962
        }, 
        {
            "buffer" : 0, 
            "byteLength" : 48, 
            "byteOffset" : 282200, 
            "target" : 34962
        }, 
        {
            "buffer" : 0, 
            "byteLength" : 64, 
            "byteOffset" : 282248, 
            "target" : 34962
        }, 
        {
            "buffer" : 0, 
            "byteLength" : 32, 
            "byteOffset" : 282312, 
            "target" : 34962
        }, 
        {
            "buffer" : 0, 
            "byteLength" : 28992, 
            "byteOffset" : 282344, 
            "target" : 34963
        }, 
        {
            "buffer" : 0, 
            "byteLength" : 41496, 
            "byteOffset" : 311336, 
            "target" : 34962
        }, 
        {
            "buffer" : 0, 
            "byteLength" : 41496, 
            "byteOffset" : 352832, 
            "target" : 34962
        }, 
        {
            "buffer" : 0, 
            "byteLength" : 55328, 
            "byteOffset" : 394328, 
            "target" : 34962
        }, 
        {
            "buffer" : 0, 
            "byteLength" : 27664, 
            "byteOffset" : 449656, 
            "target" : 34962
        }
    ], 
    "buffers" : [
        {
            "byteLength" : 477320, 
            "uri" : "pool-hall.bin"
        }
    ], 
    "cameras" : [
        {
            "name" : "Camera", 
            "perspective" : {
                "aspectRatio" : 1.7777777777777777, 
                "yfov" : 0.5033799372418416, 
                "zfar" : 100.0, 
                "znear" : 0.10000000149011612
            }, 
            "type" : "perspective"
        }
    ], 
    "images" : [
        {
            "uri" : "dog_poker_1.png"
        }
    ], 
    "materials" : [
        {
            "name" : "cubeMat", 
            "pbrMetallicRoughness" : {
                "baseColorFactor" : [
                    0.09233091015116734, 
                    0.21580999219134434, 
                    0.640000066757203, 
                    1.0
                ], 
                "metallicFactor" : 0.0
            }
        }, 
        {
            "name" : "lambert1", 
            "pbrMetallicRoughness" : {
                "baseColorFactor" : [
                    0.4000000059604645, 
                    0.4000000059604645, 
                    0.4000000059604645, 
                    1.0
                ], 
                "baseColorTexture" : {
                    "index" : 0
                }, 
                "metallicFactor" : 0.0
            }
        }, 
        {
            "name" : "wire_207254118", 
            "pbrMetallicRoughness" : {
                "baseColorFactor" : [
                    0.6400000190734865, 
                    0.6400000190734865, 
                    0.6400000190734865, 
                    1.0
                ], 
                "metallicFactor" : 0.0
            }
        }
    ], 
    "meshes" : [
        {
            "name" : "Object2389", 
            "primitives" : [
                {
                    "attributes" : {
                        "NORMAL" : 2, 
                        "POSITION" : 1, 
                        "TANGENT" : 3, 
                        "TEXCOORD_0" : 4
                    }, 
                    "indices" : 0, 
                    "material" : 2
                }
            ]
        }, 
        {
            "name" : "Plane", 
            "primitives" : [
                {
                    "attributes" : {
                        "NORMAL" : 7, 
                        "POSITION" : 6, 
                        "TANGENT" : 8, 
                        "TEXCOORD_0" : 9
                    }, 
                    "indices" : 5, 
                    "material" : 0
                }
            ]
        }, 
        {
            "name" : "Untitled", 
            "primitives" : [
                {
                    "attributes" : {
                        "NORMAL" : 12, 
                        "POSITION" : 11, 
                        "TANGENT" : 13, 
                        "TEXCOORD_0" : 14
                    }, 
                    "indices" : 10, 
                    "material" : 1
                }
            ]
        }
    ], 
    "nodes" : [
        {
            "camera" : 0, 
            "name" : "Correction_Camera", 
            "rotation" : [
                -0.7071067690849304, 
                -0.0, 
                0.0, 
                0.7071067690849304
            ]
        }, 
        {
            "children" : [
                0
            ], 
            "name" : "Camera", 
            "rotation" : [
                0.483536034822464, 
                0.33687159419059753, 
                -0.20870360732078552, 
                0.7804827094078064
            ], 
            "translation" : [
                7.481131553649902, 
                5.34366512298584, 
                6.5076398849487305
            ]
        }, 
        {
            "children" : [
                4
            ], 
            "mesh" : 0, 
            "name" : "DogPokerPainting", 
            "rotation" : [
                -0.0022845775820314884, 
                0.7071030735969543, 
                -0.7071031332015991, 
                -0.0022845773492008448
            ], 
            "scale" : [
                0.10879659652709961, 
                0.10879659652709961, 
                0.10879659652709961
            ], 
            "translation" : [
                0.0, 
                35.228355407714844, 
                79.86105346679688
            ]
        }, 
        {
            "mesh" : 2, 
            "name" : "PoolTable", 
            "rotation" : [
                0.497806191444397, 
                -0.5031356811523438, 
                0.5031330585479736, 
                0.4958837628364563
            ], 
            "scale" : [
                0.010000001639127731, 
                0.010000000707805157, 
                0.010000000707805157
            ], 
            "translation" : [
                89.82991027832031, 
                0.32026436924934387, 
                -7.9949750900268555
            ]
        }, 
        {
            "mesh" : 1, 
            "name" : "Surface", 
            "rotation" : [
                -6.893368720284343e-08, 
                5.919416068422834e-10, 
                0.003230717731639743, 
                0.9999948740005493
            ], 
            "scale" : [
                235.14434814453125, 
                147.47491455078125, 
                147.47488403320312
            ], 
            "translation" : [
                -2.073747158050537, 
                -6.39874267578125, 
                0.385406494140625
            ]
        }
    ], 
    "samplers" : [
        {}
    ], 
    "scene" : 0, 
    "scenes" : [
        {
            "name" : "Scene", 
            "nodes" : [
                2, 
                3, 
                1
            ]
        }
    ], 
    "textures" : [
        {
            "sampler" : 0, 
            "source" : 0
        }
    ]
}
